# xmcd
#
# Track frame offsets: 
#        150
#        23396
#        43710
#        65190
#        84557
#        106354
#        129213
#        149954
#        170562
#        191980
#        209523
#        228283
#        248483
#        267083
#        288276
#
# Disc length: 4068 seconds
#
# Revision: 0
# Processed by: cddbd v1.5.2PL0 Copyright (c) Steve Scherf et al.
# Submitted via: ExactAudioCopyFreeDBPlugin 1.0
#
DISCID=dc0fe20f
DTITLE=The Black Eyed Peas - The E.N.D.
DYEAR=2009
DGENRE=Hip-Hop
TTITLE0=Boom Boom Pow
TTITLE1=Rock That Body
TTITLE2=Meet Me Halfway
TTITLE3=Imma Be
TTITLE4=I Gotta Feeling
TTITLE5=Alive
TTITLE6=Missing You
TTITLE7=Ring-A-Ling
TTITLE8=Party All The Time
TTITLE9=Out Of My Head
TTITLE10=Electric City
TTITLE11=Showdown
TTITLE12=Now Generation
TTITLE13=One Tribe
TTITLE14=Rockin To The Beat
EXTD=
EXTT0=
EXTT1=
EXTT2=
EXTT3=
EXTT4=
EXTT5=
EXTT6=
EXTT7=
EXTT8=
EXTT9=
EXTT10=
EXTT11=
EXTT12=
EXTT13=
EXTT14=
PLAYORDER=
